# xmcd
#
# Track frame offsets: 
#        150
#        21650
#        42866
#        59907
#        82104
#        98925
#        117218
#        136888
#        154373
#        171862
#        192748
#
# Disc length: 2731 seconds
#
# Revision: 0
# Processed by: cddbd v1.5.2PL0 Copyright (c) Steve Scherf et al.
# Submitted via: ExactAudioCopy v1.3
#
DISCID=a60aa90b
DTITLE=Cliff Stevens - Grass Won't Grow
DYEAR=2016
DGENRE=Blues Rock
TTITLE0=Don't You Say
TTITLE1=Price You Pay
TTITLE2=Grass Won't Grow
TTITLE3=Running
TTITLE4=Need You To Love Me
TTITLE5=Crying My Heart Out
TTITLE6=Said The Wrong Thing
TTITLE7=If I Didn't Love You
TTITLE8=All Through The Night
TTITLE9=I Know
TTITLE10=Finger Swinging
EXTD=
EXTT0=
EXTT1=
EXTT2=
EXTT3=
EXTT4=
EXTT5=
EXTT6=
EXTT7=
EXTT8=
EXTT9=
EXTT10=
PLAYORDER=
